<?xml version="1.0" encoding="UTF-8"?>
<svg width="1440px" height="968px" viewBox="0 0 1440 968" version="1.1" xmlns="http://www.w3.org/2000/svg" xmlns:xlink="http://www.w3.org/1999/xlink">
    <!-- Generator: Sketch 54.1 (76490) - https://sketchapp.com -->
    <title>Logo</title>
    <desc>Created with Sketch.</desc>
    <g id="Logo" stroke="none" stroke-width="1" fill="none" fill-rule="evenodd">
        <g id="Group-3" transform="translate(258.000000, 368.000000)" fill="#140442">
            <path d="M139.022017,136.586046 C138.366718,121.120142 133.134345,109.193058 123.320605,100.806225 C113.506866,92.419391 100.532527,88.2259741 84.394727,88.2259741 C69.7835724,88.2259741 57.1354519,92.4737024 46.4503655,100.969159 C35.7652791,109.464616 29.3310486,121.228765 27.1505355,136.258748 L139.022017,136.258748 L139.022017,136.586046 Z M154.723428,203.244795 C146.872722,212.610664 136.622594,219.746905 123.974473,224.646371 C111.326353,229.548695 98.350583,231.999857 85.0485947,231.999857 C59.7523538,231.999857 39.2535278,224.320502 23.5521167,208.96322 C7.85070555,193.605939 0,173.181969 0,147.6956 C0,123.296888 7.85070555,103.257387 23.5521167,87.5728073 C39.2535278,71.8882278 59.315965,64.045938 83.7408592,64.045938 C109.908447,64.045938 130.680552,72.1597851 146.055745,88.3889085 C161.429507,104.618032 167.589027,128.09059 164.537167,158.805153 L27.1505355,158.805153 C28.6771809,173.400644 34.8925016,185.109053 45.7964978,193.931808 C56.6990632,202.754562 70.0024822,207.166654 85.7024625,207.166654 C95.2987232,207.166654 104.947923,205.368659 114.652923,201.774097 C124.356492,198.180965 131.825179,193.224329 137.058982,186.907048 L155.051077,203.244795 L154.723428,203.244795 Z M192.313384,229.058462 L192.313384,0.327155117 L219.13627,0.327155117 L219.13627,229.058462 L192.313384,229.058462 Z M271.315634,67.3127727 L273.278668,91.4928088 C282.873498,73.6300537 299.446255,64.6986761 322.998372,64.6986761 C337.173138,64.2627551 349.712519,68.2932376 360.616515,76.7886941 L348.513523,99.6623966 C340.007519,93.7810366 330.631599,90.8396419 320.38147,90.8396419 C307.079482,91.0568878 295.847837,95.5776027 286.689395,104.400357 C277.530954,113.223112 272.951018,124.822898 272.951018,139.199714 L272.951018,229.058034 L246.128132,229.058034 L246.128132,67.6400707 L270.987984,67.6400707 L271.315634,67.3127727 Z M575.885809,67.3127727 L600.419442,67.3127727 L601.728609,93.1278697 C615.466986,74.3932727 633.894038,65.0259741 657.008335,65.0259741 C677.94355,65.0259741 695.008497,71.7234354 708.203177,85.1212163 C721.394995,98.5175681 727.992334,116.763362 727.992334,139.852881 L727.992334,229.058034 L701.169448,229.058034 L701.169448,140.180179 C701.169448,124.4956 696.808422,112.188336 688.084939,103.256958 C679.361456,94.3255805 667.367203,89.8591771 652.103612,89.8591771 C637.492457,90.0778522 625.552574,95.1974224 616.283963,105.217888 C607.016782,115.238353 602.382476,127.65424 602.382476,142.466978 L602.382476,229.058034 L575.885809,229.058034 L575.885809,67.6400707 L575.885809,67.3127727 Z M924,0 L924,228.732737 L898.812499,228.732737 L897.504763,199.323078 C891.180703,209.99671 882.620329,218.111987 871.826503,223.667478 C861.032677,229.22154 849.419013,232 836.989802,232 C813.220206,232 793.647097,224.537891 778.273335,209.61653 C762.899573,194.69374 755.211977,174.272629 755.211977,148.348909 C755.211977,121.990698 762.845203,101.459534 778.110226,86.7554197 C793.375248,72.0513051 812.892557,64.6992478 836.662153,64.6992478 C848.875315,64.6992478 860.650658,67.4762788 871.989612,73.03177 C883.329997,78.585832 891.725831,86.5910561 897.177114,97.0474424 L897.177114,0.327298042 L923.673782,0.327298042 L924,0 Z M838.951405,89.5324507 C822.596126,89.5324507 809.020859,94.7063324 798.227033,105.054096 C787.431776,115.401859 782.034863,129.724364 782.034863,148.02304 C782.034863,166.103041 787.431776,180.372664 798.227033,190.827621 C809.020859,201.284008 822.596126,206.512201 838.951405,206.512201 C855.308115,206.512201 868.936322,201.065333 879.840318,190.174455 C890.744314,179.282147 896.195597,165.122577 896.195597,147.695742 C896.195597,130.704829 890.689944,116.762504 879.677209,105.870197 C868.664473,94.979319 854.980466,89.5324507 838.623756,89.5324507 L838.951405,89.5324507 Z" id="Combined-Shape"></path>
            <path d="M513.57585,94.3823392 C512.97173,93.7555986 512.656742,92.9366419 512.656742,92.1503037 C512.656742,91.333677 512.97173,90.5473388 513.57585,89.9182683 C514.812298,88.6939106 516.810359,88.6939106 518.049158,89.9182683 C518.681485,90.5473388 519,91.333677 519,92.1503037 C519,92.9366419 518.681485,93.7555986 518.049158,94.3823392 C517.445038,94.9811212 516.621131,95.2944915 515.827783,95.2944915 C515.003877,95.2944915 514.177619,94.9811212 513.57585,94.3823392 M504.598676,103.280193 C503.995732,102.651122 503.679568,101.83333 503.679568,101.048157 C503.679568,100.23153 503.995732,99.4451922 504.598676,98.8161216 C505.835124,97.590599 507.86727,97.590599 509.102542,98.8161216 C509.706662,99.4451922 510.022826,100.23153 510.022826,101.048157 C510.022826,101.83333 509.706662,102.651122 509.102542,103.280193 C508.467864,103.878975 507.674516,104.19118 506.850609,104.19118 C506.026703,104.19118 505.233355,103.878975 504.598676,103.280193 M495.622678,112.146592 C495.018558,111.54781 494.702394,110.731184 494.702394,109.944846 C494.702394,109.129384 495.018558,108.311592 495.622678,107.71281 C496.85795,106.488452 498.890096,106.488452 500.126544,107.71281 C500.729488,108.311592 501.046828,109.129384 501.046828,109.944846 C501.046828,110.731184 500.729488,111.54781 500.126544,112.146592 C499.491865,112.775663 498.698517,113.089033 497.874611,113.089033 C497.049529,113.089033 496.257356,112.775663 495.622678,112.146592 M486.645504,121.044446 C486.04491,120.445664 485.726395,119.629037 485.726395,118.81241 C485.726395,118.026072 486.04491,117.209445 486.645504,116.610663 C487.881951,115.386306 489.912922,115.386306 491.14937,116.610663 C491.75349,117.209445 492.069654,118.026072 492.069654,118.81241 C492.069654,119.629037 491.75349,120.445664 491.14937,121.044446 C490.514692,121.673516 489.721344,121.955433 488.897437,121.955433 C488.104089,121.955433 487.280182,121.673516 486.645504,121.044446 M477.700064,129.941134 C477.067736,129.343517 476.749222,128.525725 476.749222,127.709099 C476.749222,126.922761 477.067736,126.103804 477.700064,125.508517 C478.908304,124.249211 480.935749,124.249211 482.172196,125.508517 C482.806875,126.103804 483.09248,126.922761 483.09248,127.709099 C483.09248,128.525725 482.806875,129.343517 482.172196,129.941134 C481.571602,130.57137 480.74417,130.853286 479.920263,130.853286 C479.126915,130.853286 478.303008,130.57137 477.700064,129.941134 M467.772048,136.606952 C467.772048,135.820614 468.091738,135.001657 468.72289,134.374917 C469.962864,133.147064 471.95975,133.147064 473.195022,134.374917 C473.830876,135.001657 474.116481,135.820614 474.116481,136.606952 C474.116481,137.423579 473.830876,138.209917 473.195022,138.838988 C472.595604,139.434275 471.771697,139.75114 470.943089,139.75114 C470.150917,139.75114 469.32701,139.434275 468.72289,138.838988 C468.091738,138.209917 467.772048,137.423579 467.772048,136.606952 Z M459.749242,147.736841 C459.114564,147.10777 458.828958,146.321432 458.828958,145.504805 C458.828958,144.684684 459.114564,143.898346 459.749242,143.27277 C460.98569,142.043752 462.982576,142.043752 464.219024,143.27277 C464.853702,143.898346 465.139308,144.684684 465.139308,145.504805 C465.139308,146.321432 464.853702,147.10777 464.219024,147.736841 C463.61843,148.332128 462.794523,148.648993 462.001175,148.648993 C461.173743,148.648993 460.349836,148.332128 459.749242,147.736841 M450.772068,156.599746 C450.169124,156.004459 449.851785,155.184337 449.851785,154.397999 C449.851785,153.581372 450.169124,152.796199 450.772068,152.165963 C452.008516,150.942771 454.037136,150.942771 455.24185,152.165963 C455.877704,152.796199 456.196218,153.581372 456.196218,154.397999 C456.196218,155.184337 455.877704,156.004459 455.24185,156.599746 C454.641256,157.229981 453.81735,157.543352 453.024001,157.543352 C452.196569,157.543352 451.404396,157.229981 450.772068,156.599746 M441.79607,165.497599 C441.19195,164.902312 440.874611,164.082191 440.874611,163.295852 C440.874611,162.479226 441.19195,161.694052 441.79607,161.063817 C443.031342,159.839459 445.059962,159.839459 446.299936,161.063817 C446.90053,161.694052 447.22022,162.479226 447.22022,163.295852 C447.22022,164.082191 446.90053,164.902312 446.299936,165.497599 C445.665258,166.127835 444.841351,166.44004 444.048003,166.44004 C443.224096,166.44004 442.430748,166.127835 441.79607,165.497599 M432.818896,174.394288 C432.214776,173.800165 431.899788,172.980044 431.899788,172.193706 C431.899788,171.377079 432.214776,170.560452 432.818896,169.96167 C434.055344,168.736148 436.086315,168.736148 437.322762,169.96167 C437.924531,170.560452 438.243046,171.377079 438.243046,172.193706 C438.243046,172.980044 437.924531,173.800165 437.322762,174.394288 C436.688084,175.025688 435.894736,175.307605 435.070829,175.307605 C434.246922,175.307605 433.453574,175.025688 432.818896,174.394288 M423.873456,183.292141 C423.238778,182.694524 422.922614,181.876732 422.922614,181.060106 C422.922614,180.273767 423.238778,179.458306 423.873456,178.82807 C425.108728,177.634001 427.110316,177.634001 428.345588,178.82807 C428.949708,179.458306 429.267047,180.273767 429.267047,181.060106 C429.267047,181.876732 428.949708,182.694524 428.345588,183.292141 C427.71091,183.921212 426.917562,184.204293 426.093655,184.204293 C425.301483,184.204293 424.476401,183.921212 423.873456,183.292141 M414.896282,192.189994 C414.261604,191.591212 413.94544,190.774586 413.94544,189.957959 C413.94544,189.171621 414.261604,188.354994 414.896282,187.725923 C416.136256,186.530689 418.133142,186.530689 419.36959,187.725923 C420.004268,188.354994 420.289874,189.171621 420.289874,189.957959 C420.289874,190.774586 420.004268,191.591212 419.36959,192.189994 C418.76547,192.788776 417.941563,193.102147 417.117657,193.102147 C416.324309,193.102147 415.500402,192.788776 414.896282,192.189994 M405.919108,201.087848 C405.28443,200.458777 405,199.672439 405,198.855812 C405,198.038021 405.28443,197.252847 405.919108,196.623777 C407.159082,195.395924 409.155968,195.395924 410.392416,196.623777 C411.027094,197.252847 411.344434,198.038021 411.344434,198.855812 C411.344434,199.672439 411.027094,200.458777 410.392416,201.087848 C409.791822,201.683135 408.96439,202 408.171042,202 C407.347135,202 406.523228,201.683135 405.919108,201.087848" id="Fill-13"></path>
            <path d="M513.57585,94.3823392 C512.97173,93.7555986 512.656742,92.9366419 512.656742,92.1503037 C512.656742,91.333677 512.97173,90.5473388 513.57585,89.9182683 C514.812298,88.6939106 516.810359,88.6939106 518.049158,89.9182683 C518.681485,90.5473388 519,91.333677 519,92.1503037 C519,92.9366419 518.681485,93.7555986 518.049158,94.3823392 C517.445038,94.9811212 516.621131,95.2944915 515.827783,95.2944915 C515.003877,95.2944915 514.177619,94.9811212 513.57585,94.3823392 M504.598676,103.280193 C503.995732,102.651122 503.679568,101.83333 503.679568,101.048157 C503.679568,100.23153 503.995732,99.4451922 504.598676,98.8161216 C505.835124,97.590599 507.86727,97.590599 509.102542,98.8161216 C509.706662,99.4451922 510.022826,100.23153 510.022826,101.048157 C510.022826,101.83333 509.706662,102.651122 509.102542,103.280193 C508.467864,103.878975 507.674516,104.19118 506.850609,104.19118 C506.026703,104.19118 505.233355,103.878975 504.598676,103.280193 M495.622678,112.146592 C495.018558,111.54781 494.702394,110.731184 494.702394,109.944846 C494.702394,109.129384 495.018558,108.311592 495.622678,107.71281 C496.85795,106.488452 498.890096,106.488452 500.126544,107.71281 C500.729488,108.311592 501.046828,109.129384 501.046828,109.944846 C501.046828,110.731184 500.729488,111.54781 500.126544,112.146592 C499.491865,112.775663 498.698517,113.089033 497.874611,113.089033 C497.049529,113.089033 496.257356,112.775663 495.622678,112.146592 M486.645504,121.044446 C486.04491,120.445664 485.726395,119.629037 485.726395,118.81241 C485.726395,118.026072 486.04491,117.209445 486.645504,116.610663 C487.881951,115.386306 489.912922,115.386306 491.14937,116.610663 C491.75349,117.209445 492.069654,118.026072 492.069654,118.81241 C492.069654,119.629037 491.75349,120.445664 491.14937,121.044446 C490.514692,121.673516 489.721344,121.955433 488.897437,121.955433 C488.104089,121.955433 487.280182,121.673516 486.645504,121.044446 M477.700064,129.941134 C477.067736,129.343517 476.749222,128.525725 476.749222,127.709099 C476.749222,126.922761 477.067736,126.103804 477.700064,125.508517 C478.908304,124.249211 480.935749,124.249211 482.172196,125.508517 C482.806875,126.103804 483.09248,126.922761 483.09248,127.709099 C483.09248,128.525725 482.806875,129.343517 482.172196,129.941134 C481.571602,130.57137 480.74417,130.853286 479.920263,130.853286 C479.126915,130.853286 478.303008,130.57137 477.700064,129.941134 M467.772048,136.606952 C467.772048,135.820614 468.091738,135.001657 468.72289,134.374917 C469.962864,133.147064 471.95975,133.147064 473.195022,134.374917 C473.830876,135.001657 474.116481,135.820614 474.116481,136.606952 C474.116481,137.423579 473.830876,138.209917 473.195022,138.838988 C472.595604,139.434275 471.771697,139.75114 470.943089,139.75114 C470.150917,139.75114 469.32701,139.434275 468.72289,138.838988 C468.091738,138.209917 467.772048,137.423579 467.772048,136.606952 Z M459.749242,147.736841 C459.114564,147.10777 458.828958,146.321432 458.828958,145.504805 C458.828958,144.684684 459.114564,143.898346 459.749242,143.27277 C460.98569,142.043752 462.982576,142.043752 464.219024,143.27277 C464.853702,143.898346 465.139308,144.684684 465.139308,145.504805 C465.139308,146.321432 464.853702,147.10777 464.219024,147.736841 C463.61843,148.332128 462.794523,148.648993 462.001175,148.648993 C461.173743,148.648993 460.349836,148.332128 459.749242,147.736841 M450.772068,156.599746 C450.169124,156.004459 449.851785,155.184337 449.851785,154.397999 C449.851785,153.581372 450.169124,152.796199 450.772068,152.165963 C452.008516,150.942771 454.037136,150.942771 455.24185,152.165963 C455.877704,152.796199 456.196218,153.581372 456.196218,154.397999 C456.196218,155.184337 455.877704,156.004459 455.24185,156.599746 C454.641256,157.229981 453.81735,157.543352 453.024001,157.543352 C452.196569,157.543352 451.404396,157.229981 450.772068,156.599746 M441.79607,165.497599 C441.19195,164.902312 440.874611,164.082191 440.874611,163.295852 C440.874611,162.479226 441.19195,161.694052 441.79607,161.063817 C443.031342,159.839459 445.059962,159.839459 446.299936,161.063817 C446.90053,161.694052 447.22022,162.479226 447.22022,163.295852 C447.22022,164.082191 446.90053,164.902312 446.299936,165.497599 C445.665258,166.127835 444.841351,166.44004 444.048003,166.44004 C443.224096,166.44004 442.430748,166.127835 441.79607,165.497599 M432.818896,174.394288 C432.214776,173.800165 431.899788,172.980044 431.899788,172.193706 C431.899788,171.377079 432.214776,170.560452 432.818896,169.96167 C434.055344,168.736148 436.086315,168.736148 437.322762,169.96167 C437.924531,170.560452 438.243046,171.377079 438.243046,172.193706 C438.243046,172.980044 437.924531,173.800165 437.322762,174.394288 C436.688084,175.025688 435.894736,175.307605 435.070829,175.307605 C434.246922,175.307605 433.453574,175.025688 432.818896,174.394288 M423.873456,183.292141 C423.238778,182.694524 422.922614,181.876732 422.922614,181.060106 C422.922614,180.273767 423.238778,179.458306 423.873456,178.82807 C425.108728,177.634001 427.110316,177.634001 428.345588,178.82807 C428.949708,179.458306 429.267047,180.273767 429.267047,181.060106 C429.267047,181.876732 428.949708,182.694524 428.345588,183.292141 C427.71091,183.921212 426.917562,184.204293 426.093655,184.204293 C425.301483,184.204293 424.476401,183.921212 423.873456,183.292141 M414.896282,192.189994 C414.261604,191.591212 413.94544,190.774586 413.94544,189.957959 C413.94544,189.171621 414.261604,188.354994 414.896282,187.725923 C416.136256,186.530689 418.133142,186.530689 419.36959,187.725923 C420.004268,188.354994 420.289874,189.171621 420.289874,189.957959 C420.289874,190.774586 420.004268,191.591212 419.36959,192.189994 C418.76547,192.788776 417.941563,193.102147 417.117657,193.102147 C416.324309,193.102147 415.500402,192.788776 414.896282,192.189994 M405.919108,201.087848 C405.28443,200.458777 405,199.672439 405,198.855812 C405,198.038021 405.28443,197.252847 405.919108,196.623777 C407.159082,195.395924 409.155968,195.395924 410.392416,196.623777 C411.027094,197.252847 411.344434,198.038021 411.344434,198.855812 C411.344434,199.672439 411.027094,200.458777 410.392416,201.087848 C409.791822,201.683135 408.96439,202 408.171042,202 C407.347135,202 406.523228,201.683135 405.919108,201.087848" id="Fill-13" transform="translate(462.000000, 145.500000) scale(-1, 1) translate(-462.000000, -145.500000) "></path>
            <path d="M432.268534,96.4329508 L413.008044,77.1985394 C427.891346,65.7538855 444.338441,60.0186639 462.350764,60.0000384 C480.269834,59.9828457 496.726972,65.7338272 511.726482,77.2314922 L492.43443,96.495991 C483.222392,90.5172052 473.189722,87.5242305 462.334983,87.5471542 C451.336777,87.5700779 441.318453,90.5429944 432.268534,96.4329508 Z M413.282928,175.540897 L394.03822,194.759549 C382.669868,179.877774 376.982823,163.450082 377.000039,145.466444 C377.01869,127.318043 382.679911,110.890351 393.982267,96.1833691 L413.219802,115.394857 C407.188435,124.514189 404.145493,134.53041 404.123973,145.454983 C404.103888,156.237715 407.166915,166.262532 413.282928,175.540897 Z M492.590666,194.658971 L511.773683,213.816015 C497.07115,225.127425 480.695789,230.855483 462.647598,230.997323 C444.417204,231.142029 427.855335,225.419702 412.956253,213.851833 L432.113446,194.720578 C441.33983,200.98591 451.478666,204.093504 462.535694,204.019002 C473.419126,203.9445 483.433146,200.813983 492.590666,194.658971 Z M511.556617,115.385114 L530.828584,96.139241 C542.412136,111.018151 548.142222,127.557595 547.99732,145.763306 C547.855287,163.716856 542.107985,180.060017 530.769762,194.799952 L511.519315,175.575569 C517.458863,166.56226 520.506109,156.706504 520.633795,145.999707 C520.765785,134.901774 517.731451,124.697865 511.556617,115.385114 Z" id="Combined-Shape"></path>
            <path d="M530.499276,201 C537.955785,201 544,207.045338 544,214.5 C544,221.954662 537.955785,228 530.499276,228 C523.044215,228 517,221.954662 517,214.5 C517,207.045338 523.044215,201 530.499276,201" id="Fill-15"></path>
            <path d="M393.5,201 C400.954662,201 407,207.044215 407,214.499276 C407,221.955785 400.954662,228 393.5,228 C386.043891,228 380,221.955785 380,214.499276 C380,207.044215 386.043891,201 393.5,201" id="Fill-16"></path>
            <path d="M530.5,64 C537.954662,64 544,70.0438907 544,77.5 C544,84.9561093 537.954662,91 530.5,91 C523.045338,91 517,84.9561093 517,77.5 C517,70.0438907 523.045338,64 530.5,64" id="Fill-17"></path>
            <path d="M392.5,63 C399.956109,63 406,69.0438907 406,76.5 C406,83.9546624 399.956109,90 392.5,90 C385.043891,90 379,83.9546624 379,76.5 C379,69.0438907 385.043891,63 392.5,63" id="Fill-18"></path>
        </g>
    </g>
</svg>