<?xml version="1.0" encoding="UTF-8"?>
<svg width="1280px" height="640px" viewBox="0 0 1280 640" version="1.1" xmlns="http://www.w3.org/2000/svg" xmlns:xlink="http://www.w3.org/1999/xlink">
    <!-- Generator: Sketch 54.1 (76490) - https://sketchapp.com -->
    <title>Logo</title>
    <desc>Created with Sketch.</desc>
    <g id="Logo" stroke="none" stroke-width="1" fill="none" fill-rule="evenodd">
        <g id="Group-3" transform="translate(369.000000, 252.000000)" fill="#140442">
            <path d="M81.5475465,80.0676823 C81.1631614,71.0014625 78.0939557,64.0097238 72.3374114,59.0933041 C66.5808672,54.1768844 58.9703783,51.7186745 49.5042663,51.7186745 C40.9336539,51.7186745 33.5145183,54.2087221 27.2468594,59.1888174 C20.9792005,64.1689126 17.205009,71.065138 15.9259635,79.875818 L81.5475465,79.875818 L81.5475465,80.0676823 Z M90.7576816,119.1435 C86.1526141,124.633837 80.1400928,128.817151 72.7209572,131.689252 C65.3018216,134.563028 57.6904935,135.999916 49.8878121,135.999916 C35.0495409,135.999916 23.0253377,131.498225 13.8152026,122.495681 C4.60506754,113.493137 0,101.520465 0,86.580179 C0,72.2774862 4.60506754,60.5301923 13.8152026,51.3357836 C23.0253377,42.1413749 34.7935639,37.5441706 49.1207204,37.5441706 C64.4701063,37.5441706 76.6546098,42.3005637 85.6733916,51.8141878 C94.6913341,61.3278118 98.304386,75.0875871 96.5142258,93.0926757 L15.9259635,93.0926757 C16.8214632,101.648654 20.4672466,108.512203 26.8633136,113.684163 C33.2585414,118.856123 41.0620621,121.442521 50.2713579,121.442521 C55.9003333,121.442521 61.5603616,120.388524 67.2531214,118.281367 C72.945042,116.175049 77.3260248,113.269434 80.3960698,109.566201 L90.9498741,119.1435 L90.7576816,119.1435 Z M112.807202,134.27565 L112.807202,0.191780586 L128.540972,0.191780586 L128.540972,134.27565 L112.807202,134.27565 Z M159.148348,39.4592116 L160.299825,53.6337155 C165.927961,43.1624452 175.64921,37.9268101 189.464413,37.9268101 C197.779048,37.6712702 205.1344,40.0339668 211.530467,45.0140621 L204.431092,58.4227842 C199.44164,54.9750904 193.941912,53.2508246 187.929391,53.2508246 C180.126709,53.3781756 173.53845,56.0282498 168.16629,61.2002095 C162.794131,66.3721691 160.107632,73.1720434 160.107632,81.5998324 L160.107632,134.275399 L144.373861,134.275399 L144.373861,39.6510759 L158.956155,39.6510759 L159.148348,39.4592116 Z M337.803148,39.4592116 L352.194088,39.4592116 L352.962019,54.5921995 C361.020678,43.6098495 371.82962,38.1186745 385.388006,38.1186745 C397.668186,38.1186745 407.678144,42.0447725 415.417881,49.8986441 C423.155938,57.7516778 427.025807,68.447488 427.025807,81.9827233 L427.025807,134.275399 L411.292036,134.275399 L411.292036,82.1745877 C411.292036,72.980179 408.733945,65.765576 403.616923,60.5299409 C398.499902,55.2943058 391.464312,52.6760693 382.510993,52.6760693 C373.940381,52.8042582 366.936683,55.8053856 361.4999,61.6794515 C356.063957,67.5535174 353.345565,74.8317959 353.345565,83.5151248 L353.345565,134.275399 L337.803148,134.275399 L337.803148,39.6510759 L337.803148,39.4592116 Z M542,0 L542,134.084708 L527.225513,134.084708 L526.458422,116.844563 C522.748854,123.10152 517.727509,127.858751 511.396066,131.115418 C505.064622,134.371247 498.252278,136 490.96155,136 C477.018779,136 465.537583,131.62566 456.51964,122.878656 C447.501698,114.130813 442.992307,102.159817 442.992307,86.9631537 C442.992307,71.5117882 447.469805,59.4762788 456.423964,50.8566254 C465.378122,42.236972 476.826586,37.9271453 490.769358,37.9271453 C497.933356,37.9271453 504.840538,39.55506 511.491742,42.8117272 C518.143786,46.0675567 523.068615,50.7602743 526.266229,56.8898801 L526.266229,0.191864369 L541.808647,0.191864369 L542,0 Z M492.112188,52.4845401 C482.518507,52.4845401 474.555525,55.5175052 468.224082,61.5834355 C461.891799,67.6493658 458.726078,76.0453171 458.726078,86.7721272 C458.726078,97.3707484 461.891799,105.7357 468.224082,111.864468 C474.555525,117.994074 482.518507,121.058876 492.112188,121.058876 C501.706708,121.058876 509.700743,117.865885 516.09681,111.481577 C522.492877,105.096431 525.690491,96.7959932 525.690491,86.5802628 C525.690491,76.6200723 522.460985,68.4469853 516.001133,62.0618397 C509.541282,55.6775318 501.514516,52.4845401 491.919995,52.4845401 L492.112188,52.4845401 Z" id="Combined-Shape"></path>
            <path d="M300.859703,55.1436672 C300.509949,54.7776062 300.327587,54.2992776 300.327587,53.8400004 C300.327587,53.3630326 300.509949,52.9037554 300.859703,52.5363337 C301.575541,51.8212221 302.732313,51.8212221 303.449512,52.5363337 C303.815597,52.9037554 304,53.3630326 304,53.8400004 C304,54.2992776 303.815597,54.7776062 303.449512,55.1436672 C303.099759,55.4933982 302.62276,55.6764287 302.163453,55.6764287 C301.686455,55.6764287 301.208095,55.4933982 300.859703,55.1436672 M295.662391,60.3406435 C295.313318,59.9732217 295.130276,59.4955735 295.130276,59.0369767 C295.130276,58.5600089 295.313318,58.1007317 295.662391,57.73331 C296.37823,57.017518 297.554735,57.017518 298.269893,57.73331 C298.619647,58.1007317 298.802689,58.5600089 298.802689,59.0369767 C298.802689,59.4955735 298.619647,59.9732217 298.269893,60.3406435 C297.902448,60.6903745 297.443141,60.8727246 296.966142,60.8727246 C296.489144,60.8727246 296.029837,60.6903745 295.662391,60.3406435 M290.465761,65.5192487 C290.116007,65.1695176 289.932965,64.6925498 289.932965,64.2332726 C289.932965,63.7569852 290.116007,63.2793369 290.465761,62.9296059 C291.180918,62.2144943 292.357424,62.2144943 293.073262,62.9296059 C293.422335,63.2793369 293.606058,63.7569852 293.606058,64.2332726 C293.606058,64.6925498 293.422335,65.1695176 293.073262,65.5192487 C292.705817,65.8866704 292.24651,66.0697009 291.769512,66.0697009 C291.291832,66.0697009 290.833206,65.8866704 290.465761,65.5192487 M285.26845,70.716225 C284.920737,70.3664939 284.736334,69.8895261 284.736334,69.4125582 C284.736334,68.953281 284.920737,68.4763132 285.26845,68.1265821 C285.984288,67.4114706 287.160113,67.4114706 287.875951,68.1265821 C288.225705,68.4763132 288.408747,68.953281 288.408747,69.4125582 C288.408747,69.8895261 288.225705,70.3664939 287.875951,70.716225 C287.508506,71.0836467 287.049199,71.2483061 286.5722,71.2483061 C286.112894,71.2483061 285.635895,71.0836467 285.26845,70.716225 M280.089511,75.9125208 C279.723426,75.5634702 279.539023,75.0858219 279.539023,74.6088541 C279.539023,74.1495769 279.723426,73.6712483 280.089511,73.3235584 C280.789018,72.5880346 281.962802,72.5880346 282.67864,73.3235584 C283.046085,73.6712483 283.211436,74.1495769 283.211436,74.6088541 C283.211436,75.0858219 283.046085,75.5634702 282.67864,75.9125208 C282.330928,76.280623 281.851888,76.4452824 281.374889,76.4452824 C280.915582,76.4452824 280.438584,76.280623 280.089511,75.9125208 M274.341712,79.8058304 C274.341712,79.3465532 274.526795,78.8682246 274.8922,78.5021637 C275.610079,77.7850109 276.766171,77.7850109 277.481329,78.5021637 C277.849455,78.8682246 278.014805,79.3465532 278.014805,79.8058304 C278.014805,80.2827982 277.849455,80.7420754 277.481329,81.1094971 C277.134297,81.457187 276.657298,81.6422587 276.177578,81.6422587 C275.718952,81.6422587 275.241953,81.457187 274.8922,81.1094971 C274.526795,80.7420754 274.341712,80.2827982 274.341712,79.8058304 Z M269.69693,86.3064734 C269.329484,85.9390517 269.164134,85.4797745 269.164134,85.0028067 C269.164134,84.5237976 269.329484,84.0645205 269.69693,83.69914 C270.412768,82.9813067 271.56886,82.9813067 272.284698,83.69914 C272.652143,84.0645205 272.817494,84.5237976 272.817494,85.0028067 C272.817494,85.4797745 272.652143,85.9390517 272.284698,86.3064734 C271.936986,86.6541633 271.459987,86.839235 271.00068,86.839235 C270.521641,86.839235 270.044642,86.6541633 269.69693,86.3064734 M264.499619,91.4830374 C264.150545,91.1353476 263.966823,90.6563385 263.966823,90.1970613 C263.966823,89.7200935 264.150545,89.2614967 264.499619,88.8933946 C265.215457,88.1789635 266.389921,88.1789635 267.087387,88.8933946 C267.455513,89.2614967 267.639916,89.7200935 267.639916,90.1970613 C267.639916,90.6563385 267.455513,91.1353476 267.087387,91.4830374 C266.739675,91.8511396 266.262676,92.03417 265.803369,92.03417 C265.324329,92.03417 264.865703,91.8511396 264.499619,91.4830374 M259.302988,96.6800137 C258.953234,96.3323239 258.769512,95.8533148 258.769512,95.3940376 C258.769512,94.9170698 258.953234,94.458473 259.302988,94.0903709 C260.018145,93.3752593 261.19261,93.3752593 261.910489,94.0903709 C262.258202,94.458473 262.443285,94.9170698 262.443285,95.3940376 C262.443285,95.8533148 262.258202,96.3323239 261.910489,96.6800137 C261.543044,97.0481159 261.066045,97.2304659 260.606739,97.2304659 C260.12974,97.2304659 259.670433,97.0481159 259.302988,96.6800137 M254.105677,101.87631 C253.755923,101.5293 253.573561,101.050291 253.573561,100.591014 C253.573561,100.114046 253.755923,99.6370783 254.105677,99.2873472 C254.821515,98.5715552 255.99734,98.5715552 256.713178,99.2873472 C257.061571,99.6370783 257.245974,100.114046 257.245974,100.591014 C257.245974,101.050291 257.061571,101.5293 256.713178,101.87631 C256.345733,102.245092 255.886426,102.409752 255.409427,102.409752 C254.932429,102.409752 254.473122,102.245092 254.105677,101.87631 M248.926738,107.073286 C248.559292,106.724235 248.37625,106.246587 248.37625,105.769619 C248.37625,105.310342 248.559292,104.834055 248.926738,104.465952 C249.641895,103.768532 250.800709,103.768532 251.515867,104.465952 C251.865621,104.834055 252.049343,105.310342 252.049343,105.769619 C252.049343,106.246587 251.865621,106.724235 251.515867,107.073286 C251.148422,107.440708 250.689115,107.606047 250.212116,107.606047 C249.75349,107.606047 249.275811,107.440708 248.926738,107.073286 M243.729427,112.270262 C243.361981,111.920531 243.178939,111.443563 243.178939,110.966595 C243.178939,110.507318 243.361981,110.03035 243.729427,109.662929 C244.447306,108.964827 245.603398,108.964827 246.319236,109.662929 C246.686682,110.03035 246.852032,110.507318 246.852032,110.966595 C246.852032,111.443563 246.686682,111.920531 246.319236,112.270262 C245.969483,112.619993 245.492484,112.803024 245.015485,112.803024 C244.556179,112.803024 244.07918,112.619993 243.729427,112.270262 M238.532115,117.467238 C238.16467,117.099817 238,116.64054 238,116.163572 C238,115.685923 238.16467,115.227327 238.532115,114.859905 C239.249995,114.142752 240.406087,114.142752 241.121925,114.859905 C241.48937,115.227327 241.673093,115.685923 241.673093,116.163572 C241.673093,116.64054 241.48937,117.099817 241.121925,117.467238 C240.774213,117.814928 240.295173,118 239.835866,118 C239.358868,118 238.881869,117.814928 238.532115,117.467238" id="Fill-13"></path>
            <path d="M300.859703,55.1436672 C300.509949,54.7776062 300.327587,54.2992776 300.327587,53.8400004 C300.327587,53.3630326 300.509949,52.9037554 300.859703,52.5363337 C301.575541,51.8212221 302.732313,51.8212221 303.449512,52.5363337 C303.815597,52.9037554 304,53.3630326 304,53.8400004 C304,54.2992776 303.815597,54.7776062 303.449512,55.1436672 C303.099759,55.4933982 302.62276,55.6764287 302.163453,55.6764287 C301.686455,55.6764287 301.208095,55.4933982 300.859703,55.1436672 M295.662391,60.3406435 C295.313318,59.9732217 295.130276,59.4955735 295.130276,59.0369767 C295.130276,58.5600089 295.313318,58.1007317 295.662391,57.73331 C296.37823,57.017518 297.554735,57.017518 298.269893,57.73331 C298.619647,58.1007317 298.802689,58.5600089 298.802689,59.0369767 C298.802689,59.4955735 298.619647,59.9732217 298.269893,60.3406435 C297.902448,60.6903745 297.443141,60.8727246 296.966142,60.8727246 C296.489144,60.8727246 296.029837,60.6903745 295.662391,60.3406435 M290.465761,65.5192487 C290.116007,65.1695176 289.932965,64.6925498 289.932965,64.2332726 C289.932965,63.7569852 290.116007,63.2793369 290.465761,62.9296059 C291.180918,62.2144943 292.357424,62.2144943 293.073262,62.9296059 C293.422335,63.2793369 293.606058,63.7569852 293.606058,64.2332726 C293.606058,64.6925498 293.422335,65.1695176 293.073262,65.5192487 C292.705817,65.8866704 292.24651,66.0697009 291.769512,66.0697009 C291.291832,66.0697009 290.833206,65.8866704 290.465761,65.5192487 M285.26845,70.716225 C284.920737,70.3664939 284.736334,69.8895261 284.736334,69.4125582 C284.736334,68.953281 284.920737,68.4763132 285.26845,68.1265821 C285.984288,67.4114706 287.160113,67.4114706 287.875951,68.1265821 C288.225705,68.4763132 288.408747,68.953281 288.408747,69.4125582 C288.408747,69.8895261 288.225705,70.3664939 287.875951,70.716225 C287.508506,71.0836467 287.049199,71.2483061 286.5722,71.2483061 C286.112894,71.2483061 285.635895,71.0836467 285.26845,70.716225 M280.089511,75.9125208 C279.723426,75.5634702 279.539023,75.0858219 279.539023,74.6088541 C279.539023,74.1495769 279.723426,73.6712483 280.089511,73.3235584 C280.789018,72.5880346 281.962802,72.5880346 282.67864,73.3235584 C283.046085,73.6712483 283.211436,74.1495769 283.211436,74.6088541 C283.211436,75.0858219 283.046085,75.5634702 282.67864,75.9125208 C282.330928,76.280623 281.851888,76.4452824 281.374889,76.4452824 C280.915582,76.4452824 280.438584,76.280623 280.089511,75.9125208 M274.341712,79.8058304 C274.341712,79.3465532 274.526795,78.8682246 274.8922,78.5021637 C275.610079,77.7850109 276.766171,77.7850109 277.481329,78.5021637 C277.849455,78.8682246 278.014805,79.3465532 278.014805,79.8058304 C278.014805,80.2827982 277.849455,80.7420754 277.481329,81.1094971 C277.134297,81.457187 276.657298,81.6422587 276.177578,81.6422587 C275.718952,81.6422587 275.241953,81.457187 274.8922,81.1094971 C274.526795,80.7420754 274.341712,80.2827982 274.341712,79.8058304 Z M269.69693,86.3064734 C269.329484,85.9390517 269.164134,85.4797745 269.164134,85.0028067 C269.164134,84.5237976 269.329484,84.0645205 269.69693,83.69914 C270.412768,82.9813067 271.56886,82.9813067 272.284698,83.69914 C272.652143,84.0645205 272.817494,84.5237976 272.817494,85.0028067 C272.817494,85.4797745 272.652143,85.9390517 272.284698,86.3064734 C271.936986,86.6541633 271.459987,86.839235 271.00068,86.839235 C270.521641,86.839235 270.044642,86.6541633 269.69693,86.3064734 M264.499619,91.4830374 C264.150545,91.1353476 263.966823,90.6563385 263.966823,90.1970613 C263.966823,89.7200935 264.150545,89.2614967 264.499619,88.8933946 C265.215457,88.1789635 266.389921,88.1789635 267.087387,88.8933946 C267.455513,89.2614967 267.639916,89.7200935 267.639916,90.1970613 C267.639916,90.6563385 267.455513,91.1353476 267.087387,91.4830374 C266.739675,91.8511396 266.262676,92.03417 265.803369,92.03417 C265.324329,92.03417 264.865703,91.8511396 264.499619,91.4830374 M259.302988,96.6800137 C258.953234,96.3323239 258.769512,95.8533148 258.769512,95.3940376 C258.769512,94.9170698 258.953234,94.458473 259.302988,94.0903709 C260.018145,93.3752593 261.19261,93.3752593 261.910489,94.0903709 C262.258202,94.458473 262.443285,94.9170698 262.443285,95.3940376 C262.443285,95.8533148 262.258202,96.3323239 261.910489,96.6800137 C261.543044,97.0481159 261.066045,97.2304659 260.606739,97.2304659 C260.12974,97.2304659 259.670433,97.0481159 259.302988,96.6800137 M254.105677,101.87631 C253.755923,101.5293 253.573561,101.050291 253.573561,100.591014 C253.573561,100.114046 253.755923,99.6370783 254.105677,99.2873472 C254.821515,98.5715552 255.99734,98.5715552 256.713178,99.2873472 C257.061571,99.6370783 257.245974,100.114046 257.245974,100.591014 C257.245974,101.050291 257.061571,101.5293 256.713178,101.87631 C256.345733,102.245092 255.886426,102.409752 255.409427,102.409752 C254.932429,102.409752 254.473122,102.245092 254.105677,101.87631 M248.926738,107.073286 C248.559292,106.724235 248.37625,106.246587 248.37625,105.769619 C248.37625,105.310342 248.559292,104.834055 248.926738,104.465952 C249.641895,103.768532 250.800709,103.768532 251.515867,104.465952 C251.865621,104.834055 252.049343,105.310342 252.049343,105.769619 C252.049343,106.246587 251.865621,106.724235 251.515867,107.073286 C251.148422,107.440708 250.689115,107.606047 250.212116,107.606047 C249.75349,107.606047 249.275811,107.440708 248.926738,107.073286 M243.729427,112.270262 C243.361981,111.920531 243.178939,111.443563 243.178939,110.966595 C243.178939,110.507318 243.361981,110.03035 243.729427,109.662929 C244.447306,108.964827 245.603398,108.964827 246.319236,109.662929 C246.686682,110.03035 246.852032,110.507318 246.852032,110.966595 C246.852032,111.443563 246.686682,111.920531 246.319236,112.270262 C245.969483,112.619993 245.492484,112.803024 245.015485,112.803024 C244.556179,112.803024 244.07918,112.619993 243.729427,112.270262 M238.532115,117.467238 C238.16467,117.099817 238,116.64054 238,116.163572 C238,115.685923 238.16467,115.227327 238.532115,114.859905 C239.249995,114.142752 240.406087,114.142752 241.121925,114.859905 C241.48937,115.227327 241.673093,115.685923 241.673093,116.163572 C241.673093,116.64054 241.48937,117.099817 241.121925,117.467238 C240.774213,117.814928 240.295173,118 239.835866,118 C239.358868,118 238.881869,117.814928 238.532115,117.467238" id="Fill-13" transform="translate(271.000000, 85.000000) scale(-1, 1) translate(-271.000000, -85.000000) "></path>
            <path d="M253.643988,55.5188774 L242.267909,44.1582016 C251.058631,37.3984938 260.772997,34.0110237 271.411855,34.0000227 C281.995633,33.9898679 291.715931,37.3866465 300.575291,44.177665 L289.18057,55.5561116 C283.739542,52.024782 277.813812,50.2570016 271.402534,50.2705414 C264.906518,50.2840811 258.989262,52.0400142 253.643988,55.5188774 Z M242.430267,102.243454 L231.06351,113.594821 C224.348869,104.805001 220.989854,95.1020951 221.000023,84.4801806 C221.011039,73.7609493 224.354801,64.0580436 231.030462,55.3714636 L242.392983,66.7185997 C238.830596,72.1048716 237.033303,78.0208854 237.020592,84.4734107 C237.008729,90.842159 238.817886,96.7632501 242.430267,102.243454 Z M289.272849,113.535416 L300.603169,124.850395 C291.919218,131.531403 282.24722,134.914642 271.587178,134.998419 C260.819518,135.083888 251.037362,131.704035 242.237319,124.871551 L253.552386,113.571804 C259.001888,117.27238 264.990323,119.107859 271.521082,119.063855 C277.949308,119.019851 283.864022,117.170832 289.272849,113.535416 Z M300.474961,66.7128453 L311.857818,55.3453997 C318.699566,64.1335276 322.084002,73.9024394 321.998417,84.65552 C321.914526,95.2596636 318.519921,104.912642 311.823076,113.618685 L300.452929,102.263933 C303.961083,96.9402821 305.760918,91.1190464 305.836335,84.7951484 C305.914294,78.2402289 304.122085,72.2133587 300.474961,66.7128453 Z" id="Combined-Shape"></path>
            <path d="M310.999571,118 C315.418243,118 319,121.582422 319,126 C319,130.417578 315.418243,134 310.999571,134 C306.581757,134 303,130.417578 303,126 C303,121.582422 306.581757,118 310.999571,118" id="Fill-15"></path>
            <path d="M231,118 C235.417578,118 239,121.581757 239,125.999571 C239,130.418243 235.417578,134 231,134 C226.581565,134 223,130.418243 223,125.999571 C223,121.581757 226.581565,118 231,118" id="Fill-16"></path>
            <path d="M311,37 C315.417578,37 319,40.5815648 319,45 C319,49.4184352 315.417578,53 311,53 C306.582422,53 303,49.4184352 303,45 C303,40.5815648 306.582422,37 311,37" id="Fill-17"></path>
            <path d="M230,37 C234.418435,37 238,40.5815648 238,45 C238,49.4175777 234.418435,53 230,53 C225.581565,53 222,49.4175777 222,45 C222,40.5815648 225.581565,37 230,37" id="Fill-18"></path>
        </g>
    </g>
</svg>