<svg width="558" height="150" viewBox="0 0 558 150" fill="none" xmlns="http://www.w3.org/2000/svg">
<rect width="557.967" height="150" rx="16" fill="black"/>
<path d="M82.6918 98.2708L100.693 55.2267H114.098V111.348H105.238V63.8355L85.3751 111.648H79.0185L59.3299 64.1353V111.371H50.8131V55.2041H64.8145L82.6918 98.2708Z" fill="white"/>
<path d="M162.457 102.264C160.937 105.324 158.598 107.899 155.703 109.697C152.809 111.495 149.473 112.447 146.07 112.445C133.858 112.445 125.51 103.157 125.51 90.3856V62.0195H134.628V88.6831C134.628 97.965 139.888 104.057 148.236 104.057C156.871 104.057 162.434 97.767 162.434 88.6831V62.0195H171.474V111.348H162.457V102.264Z" fill="white"/>
<path d="M237.437 111.348H225.815C214.395 111.348 208.635 105.856 208.635 94.8714V70.2045H197.851V62.0199H208.635V49.5762H217.675V62.0199H237.437V70.2045H217.675V92.773C217.675 99.9621 219.959 102.954 227.801 102.954H237.431L237.437 111.348Z" fill="white"/>
<path d="M289.8 112.248H282.577L259.44 62.0205H269.566L286.442 100.064L303.228 62.0205H312.56L289.8 112.248Z" fill="white"/>
<path d="M362.506 87.7835H321.683C322.183 96.9693 328.737 104.187 338.373 104.187C348.2 104.187 352.172 98.8924 352.971 97.2973H361.898C361.105 101.59 354.844 112.569 338.362 112.569C323.173 112.569 312.536 101.183 312.536 86.7032C312.536 71.8273 323.162 60.8428 337.467 60.8428C351.879 60.8202 362.506 71.6067 362.506 87.7835ZM322.279 80.1928H352.476C350.186 72.704 344.926 68.6088 337.478 68.6088C329.53 68.6088 324.169 73.0037 322.279 80.1928Z" fill="white"/>
<path d="M380.305 111.349H371.266V62.0207H380.305V71.1047C381.695 67.5073 385.863 61.6191 397.384 61.6191H402.683V70.7031H397.187C384.575 70.7031 380.311 74.7021 380.311 83.4862L380.305 111.349Z" fill="white"/>
<path d="M422.57 89.7073C413.136 88.576 406.482 84.085 406.482 75.001C406.482 66.313 414.627 60.6172 426.643 60.6172C443.232 60.6172 448.582 69.209 450.179 74.1922H440.549C439.457 72.8913 435.778 68.4002 426.643 68.4002C419.195 68.4002 415.392 71.0926 415.392 74.6899C415.392 78.1855 417.879 80.3801 423.734 81.0815C427.61 81.5793 429.99 81.7772 434.265 82.2806C445.881 83.7739 450.849 88.7684 450.849 97.8579C450.849 106.144 443.299 112.734 429.394 112.734C412.118 112.734 406.054 102.049 404.963 97.5582H414.599C415.094 99.1532 419.065 104.747 429.394 104.747C437.736 104.747 441.809 101.749 441.809 97.8579C441.809 93.9664 439.722 91.6361 433.073 90.8668L422.57 89.7073Z" fill="white"/>
<path d="M244.191 38.2354H253.624V52.5174H244.191V38.2354ZM244.388 61.9916H253.422V111.325H244.388V61.9916Z" fill="white"/>
<path d="M182.934 46.8496H191.974V111.331H182.934V46.8496Z" fill="white"/>
<path d="M487.159 68.3096L509.098 56.6012L505.413 49.5479L485.314 57.6419C484.798 57.8514 484.221 57.8514 483.705 57.6419L463.606 49.5479L459.91 56.6238L481.849 68.3323L459.91 80.0407L463.606 87.1167L483.705 78.9604C484.221 78.7509 484.798 78.7509 485.314 78.9604L505.413 87.0771L509.109 80.0011L487.159 68.3096Z" fill="#23F7DD"/>
</svg>
